<svg xmlns="http://www.w3.org/2000/svg" xmlns:xlink="http://www.w3.org/1999/xlink" viewBox="0 0 1876.7 284.22"><defs><style>.cls-1{fill:#e01e5b;}.cls-2{fill:#ebb22c;}.cls-3{fill:#564394;}.cls-4{fill:#39b07c;}.cls-5{fill:#231f20;}.cls-6{fill:#1d1d1b;}</style><symbol id="internaldevs" data-name="internaldevs" viewBox="0 0 374.57 428.58"><path class="cls-1" d="M76.11,65.19h0a4.62,4.62,0,0,1,2.42.69l44.53,27.19a1.53,1.53,0,0,1,.74,1.31c0,9.78,0,23.11,0,35.65l0,17.41a1.57,1.57,0,0,1-1.56,1.56,1.52,1.52,0,0,1-.81-.24L31.88,94.15a1.57,1.57,0,0,1,0-2.67l41.77-25.6a4.72,4.72,0,0,1,2.45-.69m0-1.55a6.17,6.17,0,0,0-3.26.92L31.07,90.15a3.13,3.13,0,0,0,0,5.33l89.48,54.61a3.09,3.09,0,0,0,1.62.47,3.12,3.12,0,0,0,3.12-3.12c0-16,.06-38.47.07-53.06a3.09,3.09,0,0,0-1.48-2.64L79.35,64.55a6.21,6.21,0,0,0-3.24-.91Z"/><path class="cls-2" d="M295.18,65.4a1.53,1.53,0,0,1,.81.23l68.47,41.78a1.53,1.53,0,0,1,.75,1.33,1.55,1.55,0,0,1-.75,1.34l-4.3,2.62c-11.64,7.11-31,18.94-37.05,22.62a1.55,1.55,0,0,1-.81.23,1.52,1.52,0,0,1-.8-.23l-31.29-19.1c-12.79-7.8-25.74-15.7-37.19-22.7a1.52,1.52,0,0,1-.75-1.33,1.54,1.54,0,0,1,.76-1.34l41.34-25.23a1.57,1.57,0,0,1,.81-.22m0-1.56a3.15,3.15,0,0,0-1.62.45L252.21,89.52a3.12,3.12,0,0,0,0,5.33c21.21,13,47.57,29,68.47,41.8a3.08,3.08,0,0,0,3.24,0l41.35-25.24a3.12,3.12,0,0,0,0-5.33L296.81,64.3a3.1,3.1,0,0,0-1.63-.46Z"/><path class="cls-2" d="M371.37,183a1.59,1.59,0,0,1,1.09.44,1.5,1.5,0,0,1,.47,1.11c0,20.54-.08,59.25-.1,73A1.24,1.24,0,0,1,371,258.6L331.4,234.47a2,2,0,0,1-.95-1.69l0-24.19a1.52,1.52,0,0,1,.74-1.3l39.36-24a1.54,1.54,0,0,1,.8-.23m0-1.56a3.07,3.07,0,0,0-1.62.46L330.4,206a3.07,3.07,0,0,0-1.48,2.63l0,24.19a3.53,3.53,0,0,0,1.7,3l39.55,24.13a2.83,2.83,0,0,0,1.45.41,2.79,2.79,0,0,0,2.8-2.79c0-13.7.08-52.42.09-73a3.1,3.1,0,0,0-3.11-3.11Z"/><path class="cls-3" d="M318.09,306.66a1.6,1.6,0,0,1,1.12.47,1.5,1.5,0,0,1,.45,1.11l-.05,41a1.56,1.56,0,0,1-.75,1.34c-14.7,9-40.57,24.76-54.52,33.28l-.15.09-16.68,10.18-.52.32a1.57,1.57,0,0,1-1.94-.24,1.53,1.53,0,0,1-.44-1.1c0-12.73,0-29.07.06-41a1.54,1.54,0,0,1,.75-1.33c18.25-11.14,51.7-31.54,71.86-43.86a1.61,1.61,0,0,1,.81-.23m0-1.56a3.07,3.07,0,0,0-1.62.46l-71.86,43.86a3.11,3.11,0,0,0-1.5,2.65c0,11.95,0,28.28-.06,41a3.12,3.12,0,0,0,3.13,3.13,3.17,3.17,0,0,0,1.62-.46l17.2-10.5.11-.06c14-8.55,39.86-24.35,54.56-33.31a3.13,3.13,0,0,0,1.5-2.66l.05-41a3.14,3.14,0,0,0-3.13-3.14Z"/><path class="cls-4" d="M19.35,99.28a1.53,1.53,0,0,1,.82.24c8.86,5.41,37.57,21.71,45.74,26.33L50.57,136.3a6.27,6.27,0,0,0-2.74,5.2c0,9.55.08,33.28.07,47.51A1.26,1.26,0,0,1,46,190.08L3.17,163.7a2.87,2.87,0,0,1-1.38-2.47c0-15.23-.05-38-.08-47.16a7.26,7.26,0,0,1,3.45-6.23l13.39-8.33a1.52,1.52,0,0,1,.8-.23m0-1.55a3.06,3.06,0,0,0-1.62.46L4.34,106.51a8.89,8.89,0,0,0-4.19,7.57c0,9.83.09,32.18.08,47.15A4.47,4.47,0,0,0,2.35,165l42.81,26.38a2.82,2.82,0,0,0,4.3-2.4c0-14.85-.06-39.61-.08-47.51a4.71,4.71,0,0,1,2.07-3.91l17.4-11.87S31.39,104.55,21,98.19a3.07,3.07,0,0,0-1.63-.46Z"/><path class="cls-4" d="M2,235.38l27.69,16.91,17.41,10.63a1.52,1.52,0,0,1,.74,1.32l-.12,87.49a1.57,1.57,0,0,1-1.57,1.56,1.49,1.49,0,0,1-.81-.23l-43-26.24a1.56,1.56,0,0,1-.74-1.33l.12-89.22a1.52,1.52,0,0,1,.28-.89m-.12-1.9h0l-.23.14a3.12,3.12,0,0,0-1.48,2.65L0,325.49a3.08,3.08,0,0,0,1.49,2.65c9.07,5.55,31.23,19.07,43,26.25a3.07,3.07,0,0,0,1.62.46,3.11,3.11,0,0,0,3.12-3.12l.13-87.49a3.09,3.09,0,0,0-1.49-2.65c-10.63-6.5-37.15-22.66-46-28.11Z"/><g id="relleno"><path class="cls-3" d="M191.66,320.41l68.83-42.17a3.12,3.12,0,0,1,4.76,2.66c0,14.7,0,31-.05,45.38a3.1,3.1,0,0,1-1.5,2.65l-26.65,16.26a3.08,3.08,0,0,0-1.49,2.65l-.08,53.69a3.11,3.11,0,0,1-1.49,2.66l-39.21,23.93a3.12,3.12,0,0,1-4.75-2.66l.14-102.4A3.09,3.09,0,0,1,191.66,320.41Z"/><path class="cls-2" d="M265.39,179.85l-.12,86.64a3.09,3.09,0,0,1-1.49,2.65l-40.2,24.63a3.12,3.12,0,0,1-4.76-2.66c0-26.74.06-55,.1-81.51l-27.07-16a3.13,3.13,0,0,1-1.5-2.67c0-16.88.05-35.85.08-53a3.12,3.12,0,0,1,4.75-2.66c22.36,13.63,46.58,28.47,68.72,41.94A3.1,3.1,0,0,1,265.39,179.85Z"/><path class="cls-3" d="M182.46,424.21a3.1,3.1,0,0,1-4.73,2.65l-14.23-8.67h0l-29.53-18a3.06,3.06,0,0,1-1.47-2.64l.08-54.49a3,3,0,0,0-1.48-2.63c-6.81-4.15-14.49-8.85-21.28-13a3,3,0,0,1-1.46-2.6c0-15.72,0-32.35,0-48.93a2.35,2.35,0,0,1,3.58-2l66.5,41.27a8.45,8.45,0,0,1,4,7.17Z"/><path class="cls-4" d="M182.8,187.79v.3c0,10.47-.06,30.44-.06,41.86a3,3,0,0,1-1.48,2.63L156.2,247.89l-.07,38a3.34,3.34,0,0,1-5.09,2.83L110.87,264a5.12,5.12,0,0,1-2.43-4.37l0-30.33a3.1,3.1,0,0,1,1.48-2.62L178,185.18a3.06,3.06,0,0,1,1.63-.47A3.12,3.12,0,0,1,182.8,187.79Z"/><path class="cls-1" d="M283.56,56.21a3.12,3.12,0,0,1,0,5.33l-88.34,53.92a3.12,3.12,0,0,1-4.75-2.67c0-12.87.07-43.37.07-51.13A3.1,3.1,0,0,1,192,59l46.43-28.35a3.11,3.11,0,0,1,3.25,0Z"/><path class="cls-2" d="M321.37,204.35l-.05,32.91a3.11,3.11,0,0,0,1.49,2.66l49.82,30.39a3.58,3.58,0,0,1,1.73,3.09l-.05,39.22a10.63,10.63,0,0,1-5.07,9l-35.76,21.82a3.12,3.12,0,0,1-4.75-2.66l.08-53a3.08,3.08,0,0,0-1.49-2.65S275.63,254,275.06,253.26a3.08,3.08,0,0,1-1.47-2.64c0-23.32.06-49.4.1-72.72a3.07,3.07,0,0,1,1.48-2.64l94.64-57.78a3.13,3.13,0,0,1,4.76,2.68c0,12.82-.06,39.48-.07,48.28a3.09,3.09,0,0,1-1.49,2.65c-10.92,6.65-39.26,24-50.14,30.6A3.14,3.14,0,0,0,321.37,204.35Z"/><path class="cls-1" d="M183,63.19l-.15,108.46a3.08,3.08,0,0,1-1.48,2.64c-12.92,7.9-30.15,18.39-43.81,26.74a3.12,3.12,0,0,1-4.76-2.67c.06-34.68.1-74,.16-108.2a3.11,3.11,0,0,0-1.49-2.66L87.71,60.81a3.11,3.11,0,0,1,0-5.32l41.11-25.11a3.1,3.1,0,0,1,3.24,0l49.41,30.16A3.07,3.07,0,0,1,183,63.19Z"/><polygon class="cls-5" points="163.84 184.98 163.84 185.37 163.51 185.17 163.84 184.98"/><polygon class="cls-5" points="211.36 214.21 211.36 214.39 211.22 214.3 211.36 214.21"/><path class="cls-4" d="M100.92,236.08l-.2,147.08A3.13,3.13,0,0,1,96,385.82c-12-7.35-26-15.92-37.68-23a3.07,3.07,0,0,1-1.5-2.66L56.93,260a3.05,3.05,0,0,0-1.49-2.64L1.63,224.5a3.06,3.06,0,0,1-1.5-2.64c0-13.77.06-29.82.08-46.23a1.75,1.75,0,0,1,2.67-1.49l96.54,59.28a2.79,2.79,0,0,1,.82.71A3.06,3.06,0,0,1,100.92,236.08Z"/><path class="cls-1" d="M210.11,24.62a24.63,24.63,0,0,1-24.63,24.63c-32.66-1.3-32.65-48,0-49.25A24.63,24.63,0,0,1,210.11,24.62Z"/><path class="cls-4" d="M127.52,193.58A24.62,24.62,0,0,1,102.9,218.2c-32.66-1.3-32.65-47.95,0-49.25A24.63,24.63,0,0,1,127.52,193.58Z"/><path class="cls-2" d="M291.53,142.45a24.63,24.63,0,0,1-24.62,24.63c-32.66-1.3-32.65-48,0-49.25A24.62,24.62,0,0,1,291.53,142.45Z"/><path class="cls-3" d="M211.24,281.84a24.63,24.63,0,0,1-24.62,24.63c-32.66-1.3-32.65-48,0-49.25A24.62,24.62,0,0,1,211.24,281.84Z"/></g></symbol></defs><g id="Capa_2" data-name="Capa 2"><g id="Capa_1-2" data-name="Capa 1"><path class="cls-6" d="M348.72,26.78a13.5,13.5,0,0,1,9.36-3.25,13.06,13.06,0,0,1,9.24,3.25,11.35,11.35,0,0,1,3.49,8.74A11,11,0,0,1,367.32,44a13,13,0,0,1-9.24,3.25A13.45,13.45,0,0,1,348.72,44a10.86,10.86,0,0,1-3.62-8.48A11.16,11.16,0,0,1,348.72,26.78ZM366.82,76V212.27H349.1V76Z"/><path class="cls-6" d="M511.49,88.57q14.85,15.11,14.86,44.31v79.39H509.12V134.13q0-22.22-11.23-34.08T467.18,88.19q-20.48,0-32.58,13.11t-12.11,38.57v72.4H404.77V76h17.72v33.45q5.25-17.47,19-26.71a55,55,0,0,1,31.46-9.24Q496.64,73.46,511.49,88.57Z"/><path class="cls-6" d="M625.21,196.79v15.48H609q-19.72,0-29.46-9.36t-9.74-31.58V91.19H549.06V76h20.72V41.51h17.73V76H625V91.19H587.51v80.39q0,14.47,5.24,19.84t18.48,5.37Z"/><path class="cls-6" d="M744.29,190.3a37.1,37.1,0,0,0,15-25h18.47A55.45,55.45,0,0,1,757,200.54Q740,214,714.08,214q-19.47,0-34.58-8.37a58.53,58.53,0,0,1-23.59-24.21q-8.49-15.85-8.49-37.33t8.49-37.32A58.53,58.53,0,0,1,679.5,82.58q15.11-8.37,34.58-8.37,20,0,34.58,8.37a56.74,56.74,0,0,1,22.22,22.34,62.71,62.71,0,0,1,7.61,30.46,74.14,74.14,0,0,1-1,12.73H664.65q.26,17.22,7.12,28.83A42.77,42.77,0,0,0,689.62,194a52.15,52.15,0,0,0,23.71,5.5Q731.81,199.54,744.29,190.3ZM689.87,93.93A43.29,43.29,0,0,0,672,110.79q-6.87,11.35-7.37,28.33H761q1-16.73-5.5-28.21a41,41,0,0,0-17.47-17,55.6,55.6,0,0,0-48.18,0Z"/><path class="cls-6" d="M846.9,81.45q13.23-8,32.2-8v19h-5.74q-19.73,0-32.7,10.61t-13,34.57v74.65H810V76h17.73v28.21A46,46,0,0,1,846.9,81.45Z"/><path class="cls-6" d="M1009.05,88.57q14.85,15.11,14.85,44.31v79.39h-17.23V134.13q0-22.22-11.23-34.08T964.73,88.19q-20.47,0-32.58,13.11t-12.1,38.57v72.4H902.32V76h17.73v33.45q5.24-17.47,19-26.71a55,55,0,0,1,31.46-9.24Q994.18,73.46,1009.05,88.57Z"/><path class="cls-6" d="M1153.6,85a54.3,54.3,0,0,1,20.09,28.46V76h17.23V212.27h-17.23V174.82a54.3,54.3,0,0,1-20.09,28.46Q1139,214,1118.27,214q-18.48,0-33.08-8.49a57.93,57.93,0,0,1-22.72-24.34q-8.12-15.85-8.11-37.08,0-21.47,8.11-37.32a57.34,57.34,0,0,1,22.59-24.21q14.48-8.37,33.21-8.37Q1139,74.21,1153.6,85Zm-67.66,19.35q-13.86,14.6-13.86,39.81t13.86,39.82q13.86,14.61,36.82,14.61a51,51,0,0,0,26.09-6.74,47.55,47.55,0,0,0,18.23-19.1q6.6-12.36,6.61-28.59t-6.61-28.58a47.49,47.49,0,0,0-18.23-19.1,51,51,0,0,0-26.09-6.74Q1099.8,89.69,1085.94,104.3Z"/><path class="cls-6" d="M1246.59,27.53V212.27h-17.73V27.53Z"/><path class="cls-6" d="M1360.68,78.46a42,42,0,0,1,16.72,19.72V27.53h42.7V212.27h-42.7V187.05a42,42,0,0,1-16.72,19.73q-11.49,7.25-27.46,7.24a56.37,56.37,0,0,1-30.84-8.62q-13.61-8.61-21.47-24.84t-7.86-37.94q0-22,7.86-38.08t21.47-24.71a56.45,56.45,0,0,1,30.84-8.61Q1349.19,71.22,1360.68,78.46Zm-35.83,39.19q-8.37,9-8.36,25t8.36,25q8.37,9,22.1,9,13.48,0,22.09-9.24t8.61-24.71q0-15.74-8.61-24.84T1347,108.66Q1333.21,108.66,1324.85,117.65Z"/><path class="cls-6" d="M1580.62,150.36H1484q.75,15.72,8,22.59t18.48,6.87q9.48,0,15.73-4.75a22.25,22.25,0,0,0,8.24-12.23h45.18a59.12,59.12,0,0,1-12,26.34,63.84,63.84,0,0,1-23.47,18.22,74.3,74.3,0,0,1-31.7,6.62q-20.48,0-36.33-8.62a61.5,61.5,0,0,1-24.84-24.84q-9-16.22-9-37.94,0-22,8.87-38.08A60.64,60.64,0,0,1,1476,79.83q16-8.61,36.45-8.61,20.71,0,36.45,8.48a60,60,0,0,1,24.34,23.85q8.61,15.35,8.61,35.32A59.08,59.08,0,0,1,1580.62,150.36Zm-49.31-38.58q-7.61-6.86-18.84-6.86-11.74,0-19.48,7t-8.73,20.47h54.42Q1538.92,118.66,1531.31,111.78Z"/><path class="cls-6" d="M1668.5,170.58,1698.7,73h45.44l-49.43,139.31h-52.93L1592.35,73h45.44Z"/><path class="cls-6" d="M1854.86,84.45q15.86,13.23,19.85,35h-40A22.15,22.15,0,0,0,1826.9,106q-6.12-4.86-15.36-4.87-7.23,0-11,3.13t-3.74,8.86q0,6.5,6.86,9.73t21.6,6.5a214.2,214.2,0,0,1,26.21,7.61,43.29,43.29,0,0,1,17.73,12.61q7.48,8.74,7.48,23.46a36,36,0,0,1-6.49,21.22q-6.49,9.24-18.72,14.49t-29,5.24q-28.21,0-45.19-12.49t-20.72-35.7h41.19q1,9,7.62,13.74t17.1,4.74c4.82,0,8.49-1.12,11-3.37a11.35,11.35,0,0,0,3.75-8.86q0-7.25-6.87-10.36t-22.34-6.62a179.21,179.21,0,0,1-25.47-7A42,42,0,0,1,1765.36,136q-7.24-8.35-7.24-22.84,0-18.72,14.23-30.34t40.19-11.6Q1839,71.22,1854.86,84.45Z"/><use width="374.57" height="428.59" transform="scale(0.66)" xlink:href="#internaldevs"/></g></g></svg>