<svg xmlns="http://www.w3.org/2000/svg" viewBox="0 0 1366.58 269.24"><defs><style>.cls-1{fill:#ebb12b;}.cls-2{font-size:170.65px;font-family:Poppins-Regular, Poppins;}.cls-2,.cls-8{fill:#1c1405;}.cls-3{font-family:Poppins-Bold, Poppins;font-weight:700;}.cls-4,.cls-9{fill:none;stroke-miterlimit:10;}.cls-4{stroke:#221e20;}.cls-5{fill:#e01d5b;}.cls-6{fill:#38af7c;}.cls-7{fill:#6750b0;}.cls-9{stroke:#fff;}</style></defs><g id="Capa_2" data-name="Capa 2"><g id="Capa_1-2" data-name="Capa 1"><ellipse class="cls-1" cx="93.04" cy="10.31" rx="10.31" ry="11.58" transform="translate(79.26 102.9) rotate(-87.86)"/><text class="cls-2" transform="translate(291.66 165.82)">internal<tspan class="cls-3" x="651.03" y="0">devs</tspan></text><polyline class="cls-4" points="116.36 16.19 119.47 18.16 138.17 29.01 185.47 56.43 185.47 163.43 162.47 177.04"/><polyline class="cls-4" points="46.6 190.38 0.5 164.03 0.5 56.43 69.42 16.38"/><ellipse class="cls-5" cx="139.66" cy="64.07" rx="10.31" ry="11.58" transform="translate(70.42 201.24) rotate(-87.86)"/><ellipse class="cls-6" cx="46.42" cy="93.02" rx="10.31" ry="11.58" transform="translate(-48.27 135.94) rotate(-87.86)"/><ellipse class="cls-7" cx="93.42" cy="146.03" rx="10.31" ry="11.58" transform="translate(-56 233.93) rotate(-87.86)"/><path class="cls-8" d="M163.79,96.5l21.79-13.21.2-26.63-46.6,26.67L93.1,56.61l46-26.74L116.32,16.19,92.83,29.72,69.14,15.91,46.4,29.72,69.61,43.23V96.54l-23.5,13.54L.41,82.49.43,110l23.13,13.77-.76,53.38,23.56,13.47.07-27.1L69.61,177.1V204L92.85,217.1l23.38-13.47V176.94l22.93-13.53.11-26.55v-.05h0l23.1,13.77.1,26.76,23.3-13.7V136.92L162.85,123ZM69.55,150l.21-26.67,23.1-13.22V83.37l.06,0v-.21l22.81,13.35.19,53.77L93,163.53v0Z"/><line class="cls-9" x1="139.23" y1="81.34" x2="139.23" y2="170.33"/><line class="cls-9" x1="139.23" y1="136.75" x2="93.11" y2="163.44"/><line class="cls-9" x1="93.02" y1="218.72" x2="93.02" y2="161.33"/><line class="cls-9" x1="46.4" y1="200.16" x2="46.4" y2="107.94"/><line class="cls-9" x1="92.99" y1="118.61" x2="92.99" y2="26.39"/></g></g></svg>