<svg xmlns="http://www.w3.org/2000/svg" viewBox="0 0 1366.58 270.5"><defs><style>.cls-1{fill:#ebb12b;}.cls-2{font-size:170.65px;font-family:Poppins-Regular, Poppins;}.cls-2,.cls-8{fill:#1c1405;}.cls-3{font-family:Poppins-Bold, Poppins;font-weight:700;}.cls-4{fill:none;stroke:#221e20;stroke-miterlimit:10;}.cls-5{fill:#e01d5b;}.cls-6{fill:#38af7c;}.cls-7{fill:#6750b0;}</style></defs><g id="Capa_2" data-name="Capa 2"><g id="Capa_1-2" data-name="Capa 1"><ellipse class="cls-1" cx="93.04" cy="11.58" rx="11.58" ry="10.31" transform="translate(77.99 104.12) rotate(-87.86)"/><text class="cls-2" transform="translate(291.66 167.09)">internal<tspan class="cls-3" x="651.03" y="0">devs</tspan></text><path class="cls-4" d="M116.48,18.15l21.69,12.13L182.55,56a5.83,5.83,0,0,1,2.92,5.06V161.28a6,6,0,0,1-2.94,5.15L164.2,177"/><path class="cls-4" d="M43.55,189.58,3.53,167a6,6,0,0,1-3-5.23V61.12a5.94,5.94,0,0,1,3-5.14L68.64,18.34"/><ellipse class="cls-5" cx="139.66" cy="65.34" rx="10.31" ry="11.58" transform="translate(10.03 148.84) rotate(-57.86)"/><ellipse class="cls-6" cx="49.43" cy="92.29" rx="11.58" ry="10.31" transform="translate(-39.52 37.08) rotate(-30)"/><ellipse class="cls-7" cx="94.92" cy="145.8" rx="10.31" ry="11.58" transform="translate(-79.03 148.61) rotate(-57.86)"/><path class="cls-8" d="M115.55,17.9,95.86,29.24A1.75,1.75,0,0,0,95,30.75V55.07a1,1,0,0,0,1.49.85l42.64-24.79-22-13.22A1.52,1.52,0,0,0,115.55,17.9Z"/><path class="cls-8" d="M.41,83.75l0,27.55,21.84,13a2.59,2.59,0,0,1,1.27,2.27l-.74,51.88L43.07,190a.89.89,0,0,0,1.33-.77v-77a3.47,3.47,0,0,0-1.66-3Z"/><path class="cls-8" d="M95,60.65v23.6a2.34,2.34,0,0,0,1.16,2L114.83,97.2a1.84,1.84,0,0,1,.91,1.58l.17,48.42a1.15,1.15,0,0,0,1.72,1l18.56-10.74a2.06,2.06,0,0,0,1-1.79V84.76a2.28,2.28,0,0,0-1.13-2l-39.65-23A1,1,0,0,0,95,60.65Z"/><path class="cls-8" d="M96.48,165.07A2.94,2.94,0,0,0,95,167.61V216.1a.57.57,0,0,0,.85.49l19-10.91a2.73,2.73,0,0,0,1.37-2.38v-24a1.86,1.86,0,0,1,.92-1.61l18.25-10.77a3.71,3.71,0,0,0,1.82-3.19V143.45a1.13,1.13,0,0,0-1.69-1Z"/><path class="cls-8" d="M163.32,97.55l22.26-13,.19-25.06a.9.9,0,0,0-1.35-.79L142.18,82.87a1.92,1.92,0,0,0-1,1.66v53.54a2.07,2.07,0,0,0,1,1.77l19.12,11.41a2.12,2.12,0,0,1,1,1.81l.08,24.15a.81.81,0,0,0,1.22.7l19.74-11.61a4.78,4.78,0,0,0,2.35-4.12v-24L163.33,125.1a1.5,1.5,0,0,1-.73-1.28v-25A1.46,1.46,0,0,1,163.32,97.55Z"/><path class="cls-8" d="M70.4,153.43,50.18,165.1a1.11,1.11,0,0,0,0,1.91l18.37,10.73a2.14,2.14,0,0,1,1.06,1.86v25.65L90.2,216.79a.54.54,0,0,0,.81-.48v-51a2.73,2.73,0,0,0-1.37-2.38l-16.4-9.47A2.83,2.83,0,0,0,70.4,153.43Z"/><path class="cls-8" d="M48.4,113.58v46.18a1,1,0,0,0,1.52.87l18-10.4a3.28,3.28,0,0,0,1.65-2.82l.17-21.72a1.83,1.83,0,0,1,.92-1.59l18.78-10.74A3,3,0,0,0,91,110.74V89.57a1.26,1.26,0,0,0-1.89-1.09L49.75,111.24A2.7,2.7,0,0,0,48.4,113.58Z"/><path class="cls-8" d="M68.3,17.68,46.4,31,68.56,43.87a2.16,2.16,0,0,1,1,1.85V93a1.22,1.22,0,0,0,1.83,1L89.9,83.39A2.18,2.18,0,0,0,91,81.51V31.15a2.18,2.18,0,0,0-1.08-1.88L70,17.67A1.65,1.65,0,0,0,68.3,17.68Z"/></g></g></svg>